<svg width="152" height="31" viewBox="0 0 152 31" fill="none" xmlns="http://www.w3.org/2000/svg">
<path d="M36.4052 21.9674L31.0573 10.0939H31.4852L30.7833 16.9744C30.6989 17.6785 30.6854 18.3893 30.7432 19.0961C30.7532 19.481 30.9141 19.8464 31.191 20.1135C31.4823 20.3189 31.8248 20.4394 32.1804 20.4615C32.2427 20.6798 32.2808 20.9042 32.294 21.1308C32.294 21.3784 32.294 21.6127 32.294 21.8403C32.0044 21.8046 31.63 21.7845 31.171 21.78H28.9717H28.0291C27.7283 21.78 27.4876 21.78 27.3071 21.8135C27.3071 21.5859 27.3071 21.3517 27.3071 21.104C27.3278 20.8774 27.3704 20.6532 27.4341 20.4347C27.7741 20.4069 28.1001 20.2865 28.3767 20.0867C28.6685 19.8112 28.8711 19.4546 28.9583 19.0627C29.1403 18.3545 29.2544 17.6306 29.2992 16.9008L29.9009 10.2077C29.9668 9.71911 29.9668 9.22388 29.9009 8.73527C29.8814 8.59096 29.8306 8.45264 29.7521 8.33007C29.6736 8.2075 29.5692 8.10362 29.4463 8.02577C29.1438 7.87543 28.8075 7.80625 28.4703 7.82498C28.3945 7.60929 28.3495 7.38397 28.3366 7.15568C28.3366 6.93481 28.3366 6.69385 28.3366 6.43951C28.5305 6.43951 28.7778 6.43951 29.0786 6.43951H29.9944H30.7833H31.5921H32.5013C32.7954 6.43951 33.0294 6.43951 33.2099 6.43951L38.3706 18.2862H37.7021L42.1743 6.43951H42.9832H43.9123H44.7145H45.4632H46.3523H47.1144C47.1144 6.68046 47.1144 6.91473 47.081 7.15568C47.0628 7.3827 47.0202 7.60711 46.954 7.82498C46.7183 7.79718 46.4795 7.82853 46.2589 7.91616C46.0383 8.00379 45.843 8.14494 45.6905 8.32696C45.4153 8.93721 45.3404 9.61913 45.4766 10.2747L46.1919 17.4429C46.2348 18.0618 46.3332 18.6756 46.486 19.2768C46.5511 19.6037 46.7285 19.8973 46.9874 20.1068C47.2569 20.2705 47.5619 20.3669 47.8765 20.3879C47.942 20.6054 47.9802 20.8302 47.9901 21.0572C47.9901 21.2981 47.9901 21.5458 47.9901 21.8001C47.8297 21.8001 47.6024 21.8001 47.3216 21.7667H46.3456H43.411H42.2545C41.8868 21.7667 41.586 21.7666 41.3654 21.8001C41.3635 21.5583 41.3791 21.3167 41.4122 21.0772C41.4383 20.8508 41.483 20.627 41.5459 20.4079C41.9056 20.3833 42.2551 20.2781 42.5687 20.1001C42.6755 20.0205 42.7642 19.9191 42.8287 19.8025C42.8933 19.686 42.9323 19.5569 42.943 19.4241C42.9716 18.881 42.9492 18.3365 42.8762 17.7977L42.0673 10.1274H42.4283L37.7489 21.8202C37.5499 21.8889 37.3434 21.9339 37.1339 21.9541C36.8914 21.9719 36.6482 21.9763 36.4052 21.9674Z" fill="#204B57"/>
<path d="M53.7859 21.9674C52.7198 22.0198 51.6589 21.7889 50.7108 21.2981C49.944 20.8621 49.3318 20.1977 48.9594 19.3973C48.5781 18.557 48.3864 17.643 48.3978 16.7201C48.3772 15.746 48.5928 14.7814 49.0262 13.909C49.4338 13.1138 50.0601 12.4519 50.8311 12.0015C51.6724 11.5344 52.6238 11.3032 53.5853 11.3322C54.5028 11.2947 55.4131 11.5076 56.2192 11.9479C56.8881 12.3473 57.4179 12.9432 57.7366 13.6547C58.0774 14.4197 58.2746 15.241 58.3182 16.0776C58.2319 16.4751 58.0376 16.8411 57.7567 17.1351H56.4197H54.6816C54.0599 17.1351 53.4316 17.1351 52.7965 17.1819C52.1614 17.2288 51.5531 17.2355 50.9849 17.2823V15.7965H55.2966C55.3374 14.9988 55.1885 14.2028 54.8621 13.4739C54.7538 13.2276 54.5758 13.0183 54.3501 12.872C54.1244 12.7258 53.8609 12.6488 53.592 12.6507C53.2379 12.6478 52.8942 12.7712 52.6227 12.9988C52.3001 13.2962 52.0683 13.6791 51.9542 14.1031C51.7442 14.7403 51.6359 15.4066 51.6333 16.0776C51.6253 16.7906 51.7222 17.501 51.9208 18.1859C52.0833 18.7857 52.4264 19.3209 52.9034 19.7186C53.4419 20.1207 54.1047 20.3197 54.7752 20.2808C55.297 20.2771 55.8137 20.1773 56.2994 19.9863C56.7888 19.8179 57.2423 19.5591 57.6363 19.2233C57.8034 19.3334 57.9356 19.489 58.0174 19.6717C58.1316 19.8766 58.1936 20.1065 58.1979 20.341C57.6609 20.8851 57.0103 21.3034 56.2927 21.5659C55.4868 21.845 54.6385 21.9809 53.7859 21.9674Z" fill="#204B57"/>
<path d="M65.4376 11.2652C65.758 11.2633 66.0779 11.2902 66.3935 11.3455C66.7065 11.3991 67.0166 11.4683 67.3227 11.553V13.648C67.0849 13.346 66.8006 13.084 66.4804 12.8716C66.1514 12.6757 65.7733 12.5781 65.3908 12.5904C65.0805 12.5948 64.7732 12.6514 64.4816 12.7578C64.1357 12.8878 63.8245 13.0963 63.5725 13.3669C63.2602 13.7322 63.032 14.1617 62.904 14.6252C62.7063 15.3075 62.6161 16.0166 62.6366 16.7268C62.6229 17.3454 62.718 17.9616 62.9174 18.5473C63.0643 18.9966 63.3218 19.4017 63.6661 19.7253C63.9603 19.9987 64.3476 20.1495 64.749 20.1469C65.153 20.1405 65.5451 20.0097 65.8721 19.7721C66.2771 19.4623 66.5836 19.0415 66.7545 18.5607C67.0126 17.8448 67.1306 17.0858 67.1021 16.3252L67.9778 18.6142C67.7971 19.0803 67.5733 19.5284 67.3093 19.9528C67.1413 20.2251 66.9366 20.4728 66.701 20.6891C66.5073 20.9087 66.282 21.0982 66.0325 21.2513C65.7122 21.4559 65.3689 21.6222 65.0097 21.7466C64.5982 21.884 64.1667 21.9519 63.7329 21.9474C62.945 21.9615 62.1646 21.792 61.4534 21.4521C60.779 21.116 60.2306 20.5716 59.8891 19.8993C59.4839 19.0527 59.2912 18.12 59.3276 17.1819C59.3088 16.113 59.5716 15.058 60.0897 14.1232C60.59 13.2286 61.3342 12.4949 62.2355 12.0082C63.2229 11.4932 64.3246 11.2376 65.4376 11.2652ZM69.6156 5.64304C69.8116 5.71799 69.9766 5.85719 70.0836 6.03795C70.2172 6.28122 70.2797 6.55724 70.264 6.83443V9.69238H67.0754V9.26401C67.085 8.96704 67.0443 8.67059 66.955 8.38722C66.914 8.27386 66.8501 8.17016 66.7673 8.08264C66.6845 7.99511 66.5846 7.92564 66.4737 7.87854C66.1279 7.74479 65.7614 7.67231 65.3908 7.66436C65.3905 7.43989 65.4106 7.21586 65.4509 6.99506C65.4858 6.7824 65.5487 6.57534 65.6381 6.37931C66.1571 6.3778 66.6753 6.33979 67.189 6.26553C67.6775 6.19942 68.1618 6.10554 68.6396 5.9844C68.9779 5.91198 69.3058 5.79729 69.6156 5.64304ZM70.2841 8.92266V18.8418H67.0754V8.92266H70.2841ZM70.2841 18.0119C70.2761 18.3756 70.3074 18.7391 70.3777 19.0961C70.3963 19.2111 70.4402 19.3206 70.5061 19.4166C70.5719 19.5126 70.6582 19.5929 70.7587 19.6517C71.0284 19.7679 71.3212 19.8205 71.6144 19.8056C71.6409 20.048 71.6409 20.2927 71.6144 20.5351C71.5828 20.7682 71.5128 20.9944 71.4072 21.2044C70.8263 21.2252 70.2488 21.3014 69.6825 21.432C69.1209 21.5475 68.5739 21.7248 68.0513 21.9607C67.8342 21.8749 67.6478 21.7257 67.5166 21.5324C67.3763 21.2698 67.3137 20.9726 67.3361 20.6757C67.3367 20.374 67.3703 20.0732 67.4363 19.7788C67.5032 19.4776 67.5968 19.1095 67.7171 18.7213L70.2841 18.0119Z" fill="#204B57"/>
<path d="M72.3965 21.8336C72.3955 21.5809 72.4089 21.3284 72.4367 21.0772C72.4525 20.868 72.4929 20.6613 72.557 20.4615C72.7766 20.4819 72.998 20.4542 73.2058 20.3802C73.4136 20.3063 73.6028 20.1878 73.7603 20.0331C74.0067 19.5622 74.1112 19.0297 74.0611 18.5004V14.8862C74.0691 14.5898 74.0307 14.2939 73.9474 14.0094C73.9106 13.8959 73.8497 13.7917 73.7689 13.7039C73.6881 13.6161 73.5894 13.5468 73.4795 13.5007C73.1336 13.367 72.7672 13.2945 72.3965 13.2866C72.3986 13.0627 72.4142 12.8392 72.4433 12.6172C72.4765 12.4025 72.5442 12.1945 72.6439 12.0015C73.1606 11.9987 73.6765 11.9607 74.1881 11.8877C74.6788 11.8215 75.1653 11.7277 75.6454 11.6066C75.984 11.532 76.3119 11.4151 76.6214 11.2585C76.8183 11.3349 76.985 11.4736 77.096 11.6534C77.225 11.8982 77.2851 12.1736 77.2698 12.4499V18.4737C77.2218 19.0021 77.3237 19.5334 77.5639 20.0064C77.7026 20.1577 77.8743 20.2751 78.0656 20.3494C78.2568 20.4236 78.4626 20.4529 78.667 20.4347C78.7353 20.6518 78.7757 20.8767 78.7873 21.104C78.8005 21.3493 78.8005 21.595 78.7873 21.8403C78.5667 21.8403 78.2792 21.8403 77.9383 21.8068H76.8152H74.3619H73.2188C72.9113 21.8068 72.6238 21.8135 72.3965 21.8336ZM75.3847 9.48489C74.9 9.51514 74.422 9.35958 74.0477 9.04983C73.8825 8.91107 73.7509 8.73654 73.6629 8.53943C73.5749 8.34233 73.5328 8.12779 73.5397 7.912C73.5281 7.67286 73.5729 7.43436 73.6705 7.21577C73.768 6.99718 73.9156 6.80463 74.1012 6.6537C74.4811 6.35286 74.9539 6.19426 75.4382 6.20528C75.9482 6.16925 76.4528 6.32965 76.8487 6.6537C77.0163 6.81149 77.1475 7.00408 77.2329 7.21798C77.3184 7.43188 77.3561 7.66192 77.3434 7.89194C77.3451 8.1096 77.2979 8.32484 77.2053 8.52179C77.1128 8.71873 76.9772 8.89232 76.8086 9.02973C76.4024 9.34476 75.8981 9.50599 75.3847 9.48489Z" fill="#204B57"/>
<path d="M88.5673 20.4347C88.1492 20.9419 87.6084 21.3336 86.9964 21.5725C86.2868 21.847 85.5309 21.9811 84.7703 21.9674C83.8279 21.9848 82.8944 21.7832 82.0429 21.3784C81.2473 20.9974 80.5838 20.3866 80.1377 19.6248C79.6326 18.721 79.3874 17.6947 79.4291 16.6598C79.4292 15.7661 79.6278 14.8836 80.0107 14.0763C80.4117 13.2019 81.0642 12.4672 81.8848 11.9664C82.7054 11.4656 83.6566 11.2214 84.6166 11.2652C85.3299 11.2552 86.0417 11.3339 86.7357 11.4995C87.314 11.6464 87.8648 11.886 88.3668 12.2089C88.2726 12.634 88.2122 13.066 88.1863 13.5007C88.1529 13.9425 88.1395 14.431 88.1395 14.9732C87.8747 15.0861 87.5959 15.1627 87.3106 15.2007C87.0137 15.2418 86.7145 15.2641 86.4148 15.2677C86.4231 14.5593 86.2307 13.8631 85.86 13.2597C85.7222 13.0511 85.5344 12.8805 85.3136 12.7636C85.0928 12.6466 84.8463 12.5871 84.5965 12.5904C84.2794 12.5961 83.9711 12.6958 83.7105 12.8769C83.4499 13.058 83.2488 13.3123 83.1325 13.6078C82.7528 14.4613 82.5766 15.3917 82.6178 16.3252C82.6157 16.9643 82.7266 17.5988 82.9454 18.1992C83.138 18.7751 83.4821 19.2884 83.9414 19.6851C84.429 20.0822 85.0448 20.2869 85.6728 20.2607C86.1293 20.2683 86.583 20.1888 87.0098 20.0265C87.3984 19.875 87.7529 19.6475 88.0526 19.3571C88.1968 19.4865 88.3168 19.6406 88.4069 19.8123C88.4981 20.0081 88.5525 20.2191 88.5673 20.4347Z" fill="#204B57"/>
<path d="M96.7161 21.9674C96.4878 21.8835 96.2978 21.7194 96.1814 21.5056C96.0612 21.2414 96.0062 20.9522 96.0209 20.6623C96.021 20.4384 96.0366 20.2147 96.0677 19.993C96.0934 19.751 96.1473 19.513 96.2282 19.2835L96.295 19.2166C96.1943 19.5931 96.0413 19.9536 95.8404 20.2875C95.6697 20.5928 95.4429 20.863 95.1719 21.084C94.8566 21.3628 94.4849 21.5706 94.0823 21.693C93.5918 21.8363 93.0824 21.904 92.5715 21.8938C91.7387 21.9399 90.9146 21.7042 90.2318 21.2245C89.9549 21.002 89.7352 20.7164 89.591 20.3916C89.4468 20.0667 89.3823 19.7121 89.4029 19.3572C89.3891 18.8385 89.5261 18.3269 89.7973 17.8847C90.0676 17.4602 90.4311 17.1031 90.8602 16.8406C91.3308 16.5453 91.836 16.3092 92.3643 16.1378C92.9205 15.9603 93.4877 15.8194 94.0623 15.7161C94.6372 15.6091 95.1786 15.522 95.6934 15.4417C95.6934 15.0067 95.6934 14.6452 95.6533 14.3507C95.6394 14.1007 95.5944 13.8534 95.5196 13.6145C95.4567 13.4149 95.3466 13.2336 95.1987 13.0858C95.0513 12.8883 94.8524 12.7355 94.6238 12.644C94.4094 12.5661 94.1833 12.5253 93.9553 12.5235C93.7719 12.5126 93.5882 12.5397 93.4156 12.603C93.2431 12.6663 93.0855 12.7646 92.9526 12.8916C92.6944 13.161 92.5062 13.4896 92.4044 13.8488C92.2851 14.2363 92.2089 14.6359 92.1771 15.0401C91.8401 15.0423 91.5031 15.0267 91.1677 14.9933C90.8842 14.9731 90.605 14.9122 90.3388 14.8126C90.3655 14.411 90.3655 13.9759 90.3388 13.5074C90.3236 13.0401 90.2722 12.5746 90.185 12.1153C90.8806 11.8142 91.6069 11.5898 92.3509 11.446C93.1077 11.2894 93.8778 11.2065 94.6505 11.1983C95.3519 11.1761 96.0516 11.2803 96.7161 11.5062C97.1848 11.6409 97.6094 11.8977 97.9465 12.2505C98.2836 12.6033 98.5211 13.0393 98.6347 13.5141C98.8354 14.3054 98.9232 15.1211 98.8954 15.937V17.8914C98.8853 18.2638 98.9144 18.6362 98.9823 19.0024C99.0007 19.1158 99.0438 19.2237 99.1084 19.3186C99.1731 19.4134 99.2579 19.4929 99.3567 19.5513C99.6264 19.6772 99.9215 19.7391 100.219 19.732C100.252 19.974 100.252 20.2195 100.219 20.4615C100.193 20.6948 100.125 20.9215 100.018 21.1308C99.4558 21.1481 98.8961 21.2199 98.3473 21.345C97.7821 21.4911 97.235 21.6999 96.7161 21.9674ZM93.6679 20.0532C93.9956 20.0428 94.3135 19.9382 94.5837 19.752C94.92 19.5248 95.188 19.2101 95.3591 18.8418C95.5787 18.3545 95.6839 17.8233 95.6666 17.289V16.6799C95.2321 16.7603 94.8243 16.8473 94.4366 16.9543C94.094 17.0417 93.7638 17.1721 93.4539 17.3426C93.1847 17.4787 92.9546 17.6814 92.7854 17.9315C92.6262 18.1905 92.5471 18.491 92.5582 18.7949C92.543 18.9706 92.5642 19.1475 92.6206 19.3145C92.677 19.4815 92.7672 19.635 92.8857 19.7654C93.0988 19.9601 93.3796 20.0634 93.6679 20.0532Z" fill="#204B57"/>
<path d="M100.874 21.8336C100.871 21.581 100.882 21.3285 100.908 21.0773C100.923 20.868 100.964 20.6613 101.028 20.4615C101.248 20.4824 101.469 20.4549 101.677 20.3809C101.885 20.3069 102.074 20.1882 102.231 20.0331C102.478 19.5622 102.582 19.0297 102.532 18.5004V9.13015C102.544 8.85817 102.499 8.58668 102.398 8.33367C102.298 8.11948 102.122 7.95017 101.904 7.85845C101.567 7.72563 101.209 7.65317 100.847 7.64431C100.847 7.41984 100.867 7.19581 100.908 6.975C100.942 6.76234 101.005 6.55524 101.095 6.35921C101.618 6.35722 102.141 6.31922 102.659 6.24544C103.148 6.18 103.632 6.08615 104.11 5.96434C104.443 5.88788 104.767 5.77099 105.072 5.61629C105.269 5.69263 105.436 5.83131 105.547 6.0112C105.675 6.25634 105.735 6.53139 105.721 6.80767V18.4737C105.673 19.0021 105.775 19.5334 106.015 20.0064C106.158 20.1581 106.333 20.2755 106.527 20.3497C106.722 20.4239 106.931 20.453 107.138 20.4347C107.207 20.6513 107.246 20.8767 107.252 21.104C107.252 21.3517 107.252 21.5993 107.252 21.8403C107.044 21.8403 106.764 21.8403 106.409 21.8068H105.28H102.826H101.683C101.362 21.8068 101.101 21.8135 100.874 21.8336Z" fill="#204B57"/>
<path d="M108.013 27.362C107.901 27.2956 107.799 27.2121 107.713 27.1144C107.614 27.0073 107.547 26.8754 107.519 26.7329C108.019 26.1799 108.466 25.5817 108.856 24.9458C109.164 24.4333 109.389 23.8754 109.524 23.2927C109.66 22.6502 109.725 21.9949 109.718 21.3383V14.4578C109.724 14.1576 109.688 13.858 109.611 13.5676C109.577 13.4521 109.519 13.3452 109.441 13.254C109.363 13.1628 109.266 13.0895 109.157 13.0389C108.8 12.8975 108.417 12.8358 108.034 12.8582C108.032 12.7077 108.046 12.5576 108.074 12.4097C108.107 12.275 108.161 12.1463 108.234 12.0282C108.555 12.0159 108.875 11.9779 109.19 11.9145C109.594 11.8399 109.993 11.7438 110.387 11.6266C110.687 11.5447 110.974 11.4232 111.242 11.2652C111.383 11.317 111.504 11.4104 111.59 11.533C111.703 11.7223 111.754 11.9422 111.737 12.1621V21.0237C111.747 21.775 111.636 22.5229 111.409 23.2391C111.209 23.8732 110.919 24.4751 110.547 25.0262C110.201 25.5194 109.797 25.9689 109.344 26.3648C108.937 26.744 108.491 27.0784 108.013 27.362ZM110.554 8.72186C110.379 8.7259 110.205 8.69412 110.043 8.62852C109.881 8.56292 109.734 8.46486 109.611 8.34035C109.488 8.22061 109.391 8.07689 109.325 7.91803C109.26 7.75918 109.227 7.58856 109.23 7.41671C109.23 7.06169 109.371 6.72122 109.622 6.47018C109.872 6.21915 110.213 6.07809 110.567 6.07809C110.748 6.07349 110.927 6.1055 111.095 6.17222C111.263 6.23893 111.415 6.33899 111.543 6.4663C111.667 6.597 111.764 6.75153 111.827 6.92061C111.891 7.08969 111.919 7.26982 111.911 7.45016C111.912 7.62043 111.878 7.78915 111.812 7.94577C111.745 8.10239 111.647 8.24353 111.523 8.36041C111.395 8.48315 111.242 8.57802 111.075 8.63906C110.909 8.7001 110.731 8.72601 110.554 8.71516V8.72186Z" fill="#00B9AE"/>
<path d="M120.721 21.9674C120.549 21.8808 120.411 21.7364 120.334 21.5592C120.217 21.2682 120.167 20.955 120.187 20.6422C120.187 20.5017 120.187 20.341 120.187 20.1536C120.198 19.9832 120.229 19.8147 120.28 19.6517H120.32C120.267 19.9262 120.165 20.1891 120.019 20.428C119.858 20.705 119.65 20.9519 119.404 21.1576C119.118 21.3983 118.789 21.5843 118.435 21.7064C117.981 21.8582 117.504 21.9307 117.025 21.9206C116.248 21.9677 115.48 21.7298 114.865 21.2513C114.619 21.0359 114.424 20.7675 114.296 20.4662C114.167 20.1649 114.108 19.8384 114.123 19.5111C114.108 18.9831 114.253 18.463 114.538 18.0186C114.823 17.6015 115.192 17.2482 115.621 16.9811C116.07 16.6993 116.553 16.4745 117.058 16.3118C117.552 16.1494 118.057 16.0219 118.569 15.9303C119.064 15.8366 119.498 15.763 119.906 15.7027C119.906 15.087 119.906 14.6117 119.872 14.2637C119.863 13.987 119.818 13.7126 119.739 13.4472C119.678 13.2512 119.575 13.0708 119.438 12.9184C119.272 12.7038 119.059 12.5298 118.816 12.4098C118.574 12.2942 118.309 12.2369 118.041 12.2424C117.825 12.2309 117.609 12.2662 117.409 12.3459C117.208 12.4256 117.027 12.5478 116.878 12.7043C116.595 13.0071 116.387 13.3714 116.269 13.7684C116.159 14.1205 116.092 14.4845 116.069 14.8527C115.902 14.8527 115.694 14.8527 115.447 14.8192C115.259 14.8078 115.073 14.7648 114.899 14.6921C114.926 14.2731 114.926 13.8528 114.899 13.4338C114.892 13.0333 114.847 12.6345 114.765 12.2424C115.385 11.9259 116.037 11.6768 116.71 11.4995C117.32 11.33 117.949 11.24 118.582 11.2318C119.069 11.2222 119.554 11.3016 120.013 11.466C120.371 11.5989 120.695 11.8091 120.962 12.0818C121.368 12.4786 121.637 12.9942 121.731 13.5542C121.866 14.3545 121.927 15.1656 121.911 15.9771V18.4469C121.902 18.7844 121.936 19.1217 122.012 19.4508C122.038 19.5614 122.085 19.6656 122.152 19.7575C122.218 19.8495 122.302 19.9272 122.399 19.9863C122.681 20.1235 122.989 20.1967 123.302 20.2005C123.311 20.3699 123.311 20.5397 123.302 20.7091C123.291 20.8895 123.255 21.0675 123.195 21.2379C122.771 21.2603 122.352 21.3322 121.945 21.4521C121.518 21.5739 121.107 21.7469 120.721 21.9674ZM117.673 20.6824C118.033 20.6722 118.383 20.5609 118.683 20.3611C119.056 20.1026 119.353 19.7491 119.545 19.3371C119.799 18.7651 119.918 18.1421 119.892 17.5166V16.6598C119.518 16.7067 119.124 16.7669 118.703 16.8539C118.299 16.9279 117.906 17.0516 117.533 17.2221C117.193 17.3744 116.893 17.6035 116.657 17.8914C116.419 18.2391 116.302 18.6552 116.323 19.076C116.303 19.2953 116.329 19.5163 116.399 19.7249C116.469 19.9335 116.582 20.1251 116.731 20.2875C116.98 20.5389 117.319 20.6809 117.673 20.6824Z" fill="#00B9AE"/>
<path d="M128.469 27.362C127.71 27.3883 126.952 27.2702 126.236 27.014C125.713 26.8208 125.266 26.4611 124.966 25.99C124.684 25.4813 124.545 24.9051 124.565 24.3234C124.553 23.793 124.715 23.2732 125.026 22.8442C125.359 22.4032 125.805 22.0608 126.317 21.8537L127.44 21.9407C127.124 22.1592 126.869 22.4538 126.698 22.7974C126.557 23.1317 126.489 23.4922 126.497 23.8549C126.451 24.4851 126.655 25.1082 127.065 25.5884C127.612 26.031 128.311 26.2402 129.011 26.1707C129.851 26.2204 130.68 25.9556 131.337 25.4277C131.595 25.2235 131.804 24.9645 131.95 24.6693C132.096 24.3741 132.174 24.0502 132.179 23.721C132.198 23.3895 132.099 23.0621 131.898 22.7974C131.602 22.5178 131.221 22.3438 130.816 22.3021C130.04 22.1791 129.254 22.1276 128.469 22.1481C127.917 22.1575 127.365 22.1216 126.818 22.041C126.462 21.9995 126.119 21.8857 125.809 21.7064C125.578 21.5681 125.397 21.3593 125.294 21.1107C125.188 20.831 125.138 20.5331 125.147 20.2339C125.153 19.7177 125.306 19.214 125.588 18.7815C125.89 18.2988 126.272 17.8711 126.718 17.5166L127.553 18.0989C127.291 18.2973 127.065 18.5396 126.885 18.815C126.772 18.9921 126.705 19.1945 126.691 19.404C126.684 19.5147 126.699 19.6257 126.736 19.7304C126.773 19.8351 126.83 19.9312 126.905 20.0131C127.176 20.1883 127.492 20.2813 127.814 20.2808C128.282 20.3276 128.991 20.3477 129.946 20.3477C130.752 20.3243 131.556 20.4076 132.34 20.5954C132.842 20.707 133.294 20.9824 133.623 21.3784C133.904 21.8139 134.039 22.3269 134.011 22.8442C134.004 23.3904 133.861 23.9262 133.596 24.4037C133.303 24.9588 132.911 25.4555 132.44 25.8695C131.918 26.3249 131.324 26.6891 130.682 26.9471C129.977 27.2248 129.226 27.3656 128.469 27.362ZM129.011 18.661C128.321 18.6629 127.639 18.524 127.005 18.2528C126.396 17.9992 125.87 17.5794 125.488 17.0413C125.095 16.4473 124.896 15.7455 124.919 15.0334C124.91 14.381 125.064 13.7366 125.367 13.1594C125.675 12.5936 126.139 12.1288 126.704 11.8208C127.394 11.4667 128.162 11.2939 128.937 11.3188C129.589 11.2981 130.238 11.4238 130.836 11.6869C131.294 11.8934 131.706 12.1883 132.05 12.5547C132.395 12.921 132.663 13.3516 132.841 13.822C132.98 14.1694 133.057 14.5387 133.068 14.9129C133.075 15.5751 132.917 16.2285 132.607 16.8138C132.296 17.3966 131.819 17.874 131.237 18.1859C130.545 18.5227 129.779 18.6792 129.011 18.641V18.661ZM129.278 17.6236C129.515 17.6264 129.75 17.5718 129.961 17.4646C130.173 17.3575 130.356 17.2008 130.495 17.0079C130.84 16.4789 131.005 15.8515 130.963 15.2208C130.981 14.4906 130.778 13.7721 130.381 13.1594C130.207 12.8852 129.964 12.6613 129.677 12.5099C129.389 12.3584 129.068 12.2847 128.743 12.2959C128.472 12.2817 128.202 12.3453 127.965 12.4793C127.728 12.6132 127.534 12.812 127.406 13.0523C127.101 13.6497 126.957 14.3168 126.989 14.9872C127.02 15.6576 127.226 16.3081 127.587 16.874C127.792 17.1191 128.052 17.3127 128.346 17.4394C128.64 17.5661 128.959 17.6223 129.278 17.6036V17.6236ZM134.218 12.8782C133.977 12.8202 133.69 12.76 133.356 12.6975L132.366 12.5436C132.046 12.4967 131.771 12.47 131.544 12.4499L129.973 11.4861H134.064C134.129 11.7041 134.169 11.9285 134.185 12.1554C134.208 12.3889 134.219 12.6235 134.218 12.8582V12.8782Z" fill="#00B9AE"/>
<path d="M142.26 21.9674C142.085 21.8815 141.946 21.7371 141.866 21.5592C141.749 21.2682 141.699 20.955 141.719 20.6422C141.719 20.5017 141.719 20.341 141.719 20.1536C141.733 19.9836 141.764 19.8155 141.812 19.6517H141.879C141.82 19.9255 141.716 20.1878 141.572 20.428C141.412 20.7061 141.203 20.9533 140.956 21.1576C140.672 21.3982 140.346 21.5843 139.994 21.7064C139.537 21.8582 139.058 21.9306 138.577 21.9206C137.8 21.9665 137.033 21.7286 136.417 21.2513C136.173 21.0343 135.98 20.7655 135.853 20.4644C135.726 20.1634 135.668 19.8377 135.682 19.5111C135.664 18.9828 135.809 18.4617 136.097 18.0185C136.378 17.6001 136.745 17.2464 137.173 16.9811C137.623 16.7006 138.106 16.4758 138.61 16.3118C139.106 16.1493 139.613 16.0219 140.128 15.9303C140.622 15.8366 141.05 15.763 141.424 15.7027C141.424 15.087 141.424 14.6117 141.391 14.2637C141.381 13.9869 141.336 13.7126 141.257 13.4472C141.196 13.2512 141.094 13.0708 140.956 12.9184C140.791 12.7055 140.581 12.5318 140.341 12.4097C140.099 12.2956 139.834 12.2383 139.566 12.2424C139.349 12.2312 139.133 12.2666 138.931 12.3463C138.729 12.4259 138.547 12.548 138.396 12.7042C138.114 13.0071 137.906 13.3713 137.788 13.7684C137.678 14.1204 137.61 14.4845 137.587 14.8527C137.42 14.8527 137.22 14.8527 136.972 14.8192C136.782 14.8075 136.594 14.7646 136.417 14.6921C136.442 14.273 136.442 13.8528 136.417 13.4338C136.41 13.0333 136.366 12.6345 136.284 12.2424C136.901 11.9249 137.551 11.6757 138.222 11.4995C138.834 11.3294 139.466 11.2394 140.101 11.2318C140.586 11.2215 141.069 11.3009 141.525 11.466C141.884 11.6003 142.21 11.8103 142.481 12.0818C142.881 12.4819 143.147 12.9963 143.243 13.5542C143.378 14.3545 143.439 15.1656 143.423 15.9771V18.4469C143.414 18.7844 143.448 19.1217 143.523 19.4508C143.551 19.5618 143.599 19.6662 143.667 19.7581C143.735 19.85 143.82 19.9276 143.918 19.9863C144.197 20.1228 144.503 20.1959 144.814 20.2004C144.814 20.3544 144.814 20.5217 144.814 20.7091C144.797 20.8893 144.759 21.0669 144.7 21.2379C144.276 21.2608 143.857 21.3327 143.45 21.4521C143.034 21.5749 142.634 21.748 142.26 21.9674ZM139.205 20.6824C139.565 20.673 139.915 20.5616 140.214 20.3611C140.591 20.1063 140.89 19.7518 141.077 19.3371C141.331 18.7651 141.45 18.1421 141.424 17.5166V16.6598C141.05 16.7067 140.656 16.7669 140.235 16.8539C139.833 16.9289 139.443 17.0525 139.071 17.2221C138.73 17.3708 138.429 17.6005 138.196 17.8914C137.953 18.2369 137.833 18.654 137.855 19.076C137.836 19.2952 137.862 19.5159 137.932 19.7243C138.003 19.9328 138.115 20.1245 138.262 20.2875C138.512 20.5388 138.851 20.6809 139.205 20.6824Z" fill="#00B9AE"/>
<path d="M149.513 21.9674C149.157 21.9999 148.798 21.9571 148.46 21.8418C148.121 21.7265 147.81 21.5413 147.548 21.2981C147.054 20.6706 146.815 19.8792 146.879 19.0827V12.9921C146.358 12.8146 145.813 12.7153 145.262 12.6976C145.258 12.529 145.274 12.3606 145.309 12.1956C145.343 12.0301 145.395 11.8686 145.462 11.7137H146.879V8.71518C147.191 8.63668 147.49 8.51505 147.769 8.35377C148.044 8.20114 148.304 8.02176 148.544 7.81829C148.609 7.839 148.668 7.87373 148.718 7.92001C148.767 7.96629 148.806 8.02298 148.831 8.08603C148.894 8.38292 148.916 8.68675 148.898 8.98958V11.6668H151.82C151.819 11.8286 151.804 11.9899 151.773 12.1487C151.745 12.3224 151.693 12.4913 151.619 12.6507C151.078 12.6507 150.583 12.7042 150.135 12.7578C149.687 12.8113 149.273 12.8716 148.898 12.9452V18.5674C148.887 18.9815 148.941 19.3949 149.059 19.7922C149.135 20.0675 149.291 20.3142 149.507 20.5017C149.7 20.6451 149.934 20.7225 150.175 20.7225C150.455 20.7304 150.734 20.685 150.997 20.5887C151.243 20.4969 151.469 20.3608 151.666 20.1871C151.854 20.3924 151.971 20.6529 152 20.93C151.7 21.2532 151.326 21.4989 150.91 21.6462C150.469 21.8394 149.995 21.9484 149.513 21.9674Z" fill="#00B9AE"/>
<path d="M21.2832 24.1534C21.9912 22.5597 22.5604 20.905 22.984 19.2086C22.4382 19.6788 21.7844 19.9985 21.0845 20.1373L21.2832 24.1534Z" fill="#00B9AE"/>
<path d="M6.01162 22.5682C4.77826 22.5668 3.56334 22.2625 2.46948 21.681C3.43643 23.9342 4.78697 25.9947 6.45846 27.7669C6.3068 27.2265 6.21684 26.67 6.19036 26.1086L6.01162 22.5682Z" fill="#00B9AE"/>
<path d="M23.9809 7.08977C22.8403 -3.77952 9.16865 1.0854 9.16865 1.0854C6.81194 1.77659 4.57687 2.82889 2.54319 4.20475C3.04113 4.6814 3.33166 5.33441 3.35216 6.02304C3.38105 6.34782 3.34556 6.67512 3.24774 6.98619C3.14992 7.29726 2.99167 7.58601 2.78205 7.83594C2.57243 8.08587 2.31554 8.29209 2.02609 8.44278C1.73663 8.59346 1.42028 8.68565 1.09513 8.71411C0.749428 8.72614 0.404325 8.6769 0.0758243 8.56865C-0.212981 12.3299 0.325435 16.1087 1.65331 19.64C2.31233 20.2434 3.08785 20.7059 3.93226 20.9992C4.77667 21.2924 5.67217 21.4101 6.56377 21.3451C14.2652 20.9491 14.702 9.94249 14.6535 6.57261C14.6534 6.48445 14.6292 6.39795 14.5836 6.32248C14.538 6.24702 14.4726 6.18541 14.3946 6.14428C14.3079 6.08989 14.205 6.06704 14.1034 6.07961H13.5371C13.3044 6.65619 12.9169 7.15744 12.4174 7.52816C11.9178 7.89888 11.3255 8.12473 10.7057 8.18077C10.0501 8.17558 9.42125 7.92052 8.94756 7.46774C8.47388 7.01496 8.19111 6.39859 8.15704 5.74455C8.12296 5.09052 8.34013 4.44817 8.7642 3.94871C9.18827 3.44925 9.78723 3.13038 10.4387 3.05723C11.0706 3.04509 11.6933 3.20969 12.2365 3.53242C12.7798 3.85514 13.2218 4.32315 13.5128 4.8836H14.0548C14.4433 4.86061 14.8289 4.96255 15.155 5.17451C15.3862 5.33001 15.5761 5.53921 15.7085 5.78411C15.841 6.02902 15.912 6.30231 15.9155 6.58065C15.9721 10.1364 15.4867 21.5633 7.28375 22.5331L7.46981 25.9838C7.53348 27.2859 8.01576 28.5329 8.84507 29.5395C9.28459 29.8231 9.74423 30.0743 10.2203 30.2911C14.3137 32.1821 17.6628 30.1052 20.0493 26.2504C20.0737 25.9411 20.0737 25.6304 20.0493 25.3211L19.7823 20.1329C18.7652 20.0579 17.8088 19.6211 17.0865 18.9018C16.3642 18.1825 15.924 17.2285 15.8457 16.2127C15.7674 15.1968 16.0562 14.1866 16.6597 13.3654C17.2633 12.5441 18.1415 11.9662 19.1352 11.7365C20.2205 11.4654 21.2224 11.5034 22.2415 12.06C22.944 12.4437 23.5264 13.0142 23.9243 13.7083C24.1698 11.5099 24.1888 9.29208 23.9809 7.08977Z" fill="#00B9AE"/>
<path d="M23.3542 16.1294C23.4062 15.4758 23.2524 14.8223 22.9144 14.2607C22.5764 13.6991 22.0712 13.2576 21.4697 12.9983C20.8682 12.7389 20.2008 12.6747 19.561 12.8146C18.9212 12.9546 18.3413 13.2917 17.9026 13.7785C17.464 14.2654 17.1887 14.8775 17.1154 15.5291C17.0421 16.1806 17.1745 16.8388 17.4939 17.4112C17.8134 17.9835 18.3039 18.4413 18.8966 18.7203C19.4892 18.9992 20.1543 19.0853 20.7983 18.9664C21.4759 18.8393 22.0931 18.4927 22.5549 17.9802C23.0167 17.4676 23.2976 16.8174 23.3542 16.1294ZM20.2431 17.1831C19.9796 17.1831 19.722 17.1047 19.503 16.9578C19.2841 16.811 19.1136 16.6024 19.0133 16.3584C18.913 16.1144 18.8873 15.846 18.9396 15.5874C18.9919 15.3288 19.1197 15.0916 19.3069 14.9058C19.494 14.72 19.7321 14.5941 19.9908 14.544C20.2496 14.4939 20.5174 14.522 20.7602 14.6246C21.003 14.7271 21.2099 14.8996 21.3546 15.1201C21.4994 15.3406 21.5754 15.5992 21.5731 15.8631C21.5732 16.0374 21.5387 16.21 21.4717 16.3709C21.4047 16.5318 21.3066 16.6779 21.1829 16.8006C21.0593 16.9233 20.9125 17.0203 20.7512 17.086C20.5899 17.1516 20.4173 17.1846 20.2431 17.1831Z" fill="#204B57"/>
</svg>
